# xmcd
# 
# Track frame offsets:
#     150
#     16004
#     29707
#     46014
#     59345
#     74011
#     82800
#     94176
#     106820
#     121232
#     141194
#     165815
#     179141
#     187943
#     201132
#     216883
#     230693
#     246626
#     265819
# 
# Disc length: 3755
# 
# Revision: 2
# Processed by: cddbd v1.5.2PL0 Copyright (c) Steve Scherf et al.
# Submitted via: fre:ac v1.0.31
# 
DISCID=0b0ea913
DTITLE=Original Soundtrack - Boardwalk Empire - Volume 3
DYEAR=2013
DGENRE=Soundtrack
TTITLE0=I Surrender Dear
TTITLE1=Love Me Or Leave Me
TTITLE2=The Peanut Vendor
TTITLE3=Where The Blue Of The Night (Meets The Gold Of The Day)
TTITLE4=I'm A Little Blackbird
TTITLE5=Tiger Rag
TTITLE6=I Wish I Could Shimmy Like My Sister Kate
TTITLE7=Choo Choo
TTITLE8=Farewell Daddy Blues
TTITLE9=Out Of Nowhere
TTITLE10=What Is It
TTITLE11=Down In Jungle Town
TTITLE12=Son Que Quita Las Penas
TTITLE13=The Yodeling Chinaman
TTITLE14=There Aint No Sweet Man
TTITLE15=Dont Mind The Rain
TTITLE16=(I'm A Dreamer) Aren't We All
TTITLE17=Dream A Littel Dream Of Me
TTITLE18=If You Want The Rainbow (You Must Have The Rain)
EXTD=YEAR: 2013
EXTT0=
EXTT1=
EXTT2=
EXTT3=
EXTT4=
EXTT5=
EXTT6=
EXTT7=
EXTT8=
EXTT9=
EXTT10=
EXTT11=
EXTT12=
EXTT13=
EXTT14=
EXTT15=
EXTT16=
EXTT17=
EXTT18=
PLAYORDER=
